<svg width="176" height="176" viewBox="0 0 176 176" fill="none" xmlns="http://www.w3.org/2000/svg">
<path fill-rule="evenodd" clip-rule="evenodd" d="M51 0C22.8335 0 0 22.8335 0 51V125C0 153.167 22.8335 176 51 176H125C153.167 176 176 153.167 176 125V51C176 22.8335 153.167 0 125 0H51ZM55.0312 69.875V104H64.4766C67.5391 103.969 70.2188 103.305 72.5156 102.008C74.8281 100.711 76.6016 98.8516 77.8359 96.4297C79.0859 94.0078 79.7109 91.1875 79.7109 87.9688V85.7891C79.6953 82.6484 79.0625 79.8672 77.8125 77.4453C76.5781 75.0234 74.8203 73.1562 72.5391 71.8438C70.2578 70.5312 67.6328 69.875 64.6641 69.875H55.0312ZM59.5312 100.32V73.5781H64.7812C68.125 73.6094 70.7031 74.7031 72.5156 76.8594C74.3438 79 75.2578 82.0078 75.2578 85.8828V87.875C75.2578 91.8594 74.2891 94.9297 72.3516 97.0859C70.4297 99.2422 67.7344 100.32 64.2656 100.32H59.5312ZM86.8594 104H91.3594V69.875H86.8594V104ZM104.109 104V90.6406H112.148C116.008 90.6406 118.969 89.75 121.031 87.9688C123.109 86.1719 124.148 83.6172 124.148 80.3047C124.148 77.1641 123.086 74.6406 120.961 72.7344C118.852 70.8281 115.93 69.875 112.195 69.875H99.6094V104H104.109ZM112.195 86.9609H104.109V73.5781H112.453C114.688 73.625 116.445 74.2578 117.727 75.4766C119.008 76.6953 119.648 78.3203 119.648 80.3516C119.648 82.4922 119.008 84.1328 117.727 85.2734C116.445 86.3984 114.602 86.9609 112.195 86.9609Z" fill="#303030"/>
</svg>
