<svg width="176" height="176" viewBox="0 0 176 176" fill="none" xmlns="http://www.w3.org/2000/svg">
<path fill-rule="evenodd" clip-rule="evenodd" d="M51 0C22.8335 0 0 22.8335 0 51V125C0 153.167 22.8335 176 51 176H125C153.167 176 176 153.167 176 125V51C176 22.8335 153.167 0 125 0H51ZM49.0078 69.875V104H58.4531C61.5156 103.969 64.1953 103.305 66.4922 102.008C68.8047 100.711 70.5781 98.8516 71.8125 96.4297C73.0625 94.0078 73.6875 91.1875 73.6875 87.9688V85.7891C73.6719 82.6484 73.0391 79.8672 71.7891 77.4453C70.5547 75.0234 68.7969 73.1562 66.5156 71.8438C64.2344 70.5312 61.6094 69.875 58.6406 69.875H49.0078ZM53.5078 100.32V73.5781H58.7578C62.1016 73.6094 64.6797 74.7031 66.4922 76.8594C68.3203 79 69.2344 82.0078 69.2344 85.8828V87.875C69.2344 91.8594 68.2656 94.9297 66.3281 97.0859C64.4062 99.2422 61.7109 100.32 58.2422 100.32H53.5078ZM85.0078 90.1953H93.0234L100.43 104H105.258V103.719L97.2422 89.2344C99.2891 88.4531 100.883 87.2734 102.023 85.6953C103.18 84.1172 103.758 82.2656 103.758 80.1406C103.758 76.7969 102.719 74.25 100.641 72.5C98.5781 70.75 95.625 69.875 91.7812 69.875H80.4844V104H85.0078V90.1953ZM91.9219 86.5156H85.0078V73.5781H91.8984C94.2734 73.5938 96.0859 74.1641 97.3359 75.2891C98.6016 76.4141 99.2344 78.0312 99.2344 80.1406C99.2344 82.0781 98.5703 83.625 97.2422 84.7812C95.9297 85.9375 94.1562 86.5156 91.9219 86.5156ZM130.781 100.32H114.609V69.875H110.086V104H130.781V100.32Z" fill="#303030"/>
</svg>
