<svg width="176" height="176" viewBox="0 0 176 176" fill="none" xmlns="http://www.w3.org/2000/svg">
<path fill-rule="evenodd" clip-rule="evenodd" d="M51 0C22.8335 0 0 22.8335 0 51V125C0 153.167 22.8335 176 51 176H125C153.167 176 176 153.167 176 125V51C176 22.8335 153.167 0 125 0H51ZM56.6875 104H61.2109V69.875H56.6875V84.5469H39.4844V69.875H34.9844V104H39.4844V88.2266H56.6875V104ZM70.9609 104L74.1719 95.0938H88.4688L91.7266 104H96.3438L83.2891 69.875H79.3516L66.3203 104H70.9609ZM87.1328 91.3906H75.5312L81.3203 75.4297L87.1328 91.3906ZM121.633 100.32H105.461V69.875H100.938V104H121.633V100.32ZM132.906 73.5781H143.875V69.875H117.484V73.5781H128.43V104H132.906V73.5781Z" fill="#303030"/>
</svg>
